<mxfile host="app.diagrams.net" modified="2023-08-26T20:45:13.630Z" agent="Mozilla/5.0 (Windows NT 10.0; Win64; x64) AppleWebKit/537.36 (KHTML, like Gecko) Chrome/116.0.0.0 Safari/537.36" etag="35T8P2qq1wslBn7znsVc" version="21.6.9">
  <diagram name="Diagrama Funcionamiento" id="KaRL7IBIG4WsnrvJ8K7m">
    <mxGraphModel dx="1434" dy="760" grid="1" gridSize="10" guides="1" tooltips="1" connect="1" arrows="1" fold="1" page="1" pageScale="1" pageWidth="827" pageHeight="1169" math="0" shadow="0">
      <root>
        <mxCell id="0" />
        <mxCell id="1" parent="0" />
        <mxCell id="_ES_SosYERnUc2k4E07f-18" value="" style="swimlane;startSize=0;fillColor=#1f2737;strokeColor=#001DBC;fontColor=#ffffff;" vertex="1" parent="1">
          <mxGeometry x="480" y="110" width="320" height="380" as="geometry">
            <mxRectangle x="480" y="170" width="50" height="40" as="alternateBounds" />
          </mxGeometry>
        </mxCell>
        <mxCell id="_ES_SosYERnUc2k4E07f-12" value="App 1" style="whiteSpace=wrap;html=1;aspect=fixed;" vertex="1" parent="_ES_SosYERnUc2k4E07f-18">
          <mxGeometry x="200" y="10" width="80" height="80" as="geometry" />
        </mxCell>
        <mxCell id="_ES_SosYERnUc2k4E07f-16" value="App N" style="whiteSpace=wrap;html=1;aspect=fixed;" vertex="1" parent="_ES_SosYERnUc2k4E07f-18">
          <mxGeometry x="200" y="210" width="80" height="80" as="geometry" />
        </mxCell>
        <mxCell id="_ES_SosYERnUc2k4E07f-13" value="App 2" style="whiteSpace=wrap;html=1;aspect=fixed;" vertex="1" parent="_ES_SosYERnUc2k4E07f-18">
          <mxGeometry x="200" y="115" width="80" height="80" as="geometry" />
        </mxCell>
        <mxCell id="_ES_SosYERnUc2k4E07f-19" value="" style="swimlane;startSize=0;fillColor=#008a00;fontColor=#ffffff;strokeColor=#005700;" vertex="1" parent="1">
          <mxGeometry x="80" y="40" width="330" height="440" as="geometry" />
        </mxCell>
        <mxCell id="_ES_SosYERnUc2k4E07f-24" style="edgeStyle=orthogonalEdgeStyle;rounded=0;orthogonalLoop=1;jettySize=auto;html=1;entryX=0;entryY=0.5;entryDx=0;entryDy=0;" edge="1" parent="_ES_SosYERnUc2k4E07f-19" source="_ES_SosYERnUc2k4E07f-2" target="_ES_SosYERnUc2k4E07f-1">
          <mxGeometry relative="1" as="geometry" />
        </mxCell>
        <mxCell id="_ES_SosYERnUc2k4E07f-2" value="Base de datos with MySQL" style="whiteSpace=wrap;html=1;aspect=fixed;" vertex="1" parent="_ES_SosYERnUc2k4E07f-19">
          <mxGeometry x="10" y="160" width="90" height="90" as="geometry" />
        </mxCell>
        <mxCell id="_ES_SosYERnUc2k4E07f-25" style="edgeStyle=orthogonalEdgeStyle;rounded=0;orthogonalLoop=1;jettySize=auto;html=1;entryX=0.5;entryY=1;entryDx=0;entryDy=0;" edge="1" parent="_ES_SosYERnUc2k4E07f-19" source="_ES_SosYERnUc2k4E07f-1" target="_ES_SosYERnUc2k4E07f-8">
          <mxGeometry relative="1" as="geometry" />
        </mxCell>
        <mxCell id="_ES_SosYERnUc2k4E07f-1" value="Backend with laravel" style="whiteSpace=wrap;html=1;aspect=fixed;" vertex="1" parent="_ES_SosYERnUc2k4E07f-19">
          <mxGeometry x="170" y="180" width="90" height="90" as="geometry" />
        </mxCell>
        <mxCell id="_ES_SosYERnUc2k4E07f-8" value="Frotend ligado al backend with Laravel Blade (CEO frotn)" style="whiteSpace=wrap;html=1;aspect=fixed;" vertex="1" parent="_ES_SosYERnUc2k4E07f-19">
          <mxGeometry x="150" y="20" width="100" height="100" as="geometry" />
        </mxCell>
        <mxCell id="_ES_SosYERnUc2k4E07f-7" value="Aplicacion Frotend principal with React" style="whiteSpace=wrap;html=1;aspect=fixed;" vertex="1" parent="_ES_SosYERnUc2k4E07f-19">
          <mxGeometry x="210" y="330" width="80" height="80" as="geometry" />
        </mxCell>
        <mxCell id="_ES_SosYERnUc2k4E07f-26" style="edgeStyle=orthogonalEdgeStyle;rounded=0;orthogonalLoop=1;jettySize=auto;html=1;entryX=0.5;entryY=0;entryDx=0;entryDy=0;" edge="1" parent="_ES_SosYERnUc2k4E07f-19" source="_ES_SosYERnUc2k4E07f-1" target="_ES_SosYERnUc2k4E07f-7">
          <mxGeometry relative="1" as="geometry" />
        </mxCell>
        <mxCell id="_ES_SosYERnUc2k4E07f-27" style="edgeStyle=orthogonalEdgeStyle;rounded=0;orthogonalLoop=1;jettySize=auto;html=1;entryX=0;entryY=0.5;entryDx=0;entryDy=0;" edge="1" parent="1" source="_ES_SosYERnUc2k4E07f-1" target="_ES_SosYERnUc2k4E07f-12">
          <mxGeometry relative="1" as="geometry" />
        </mxCell>
        <mxCell id="_ES_SosYERnUc2k4E07f-28" style="edgeStyle=orthogonalEdgeStyle;rounded=0;orthogonalLoop=1;jettySize=auto;html=1;entryX=0;entryY=0.5;entryDx=0;entryDy=0;" edge="1" parent="1" source="_ES_SosYERnUc2k4E07f-1" target="_ES_SosYERnUc2k4E07f-13">
          <mxGeometry relative="1" as="geometry" />
        </mxCell>
        <mxCell id="_ES_SosYERnUc2k4E07f-29" style="edgeStyle=orthogonalEdgeStyle;rounded=0;orthogonalLoop=1;jettySize=auto;html=1;entryX=0;entryY=0.6;entryDx=0;entryDy=0;entryPerimeter=0;" edge="1" parent="1" source="_ES_SosYERnUc2k4E07f-1" target="_ES_SosYERnUc2k4E07f-16">
          <mxGeometry relative="1" as="geometry" />
        </mxCell>
      </root>
    </mxGraphModel>
  </diagram>
</mxfile>
